<svg fill="#000000" height="100px" width="100px" xmlns="http://www.w3.org/2000/svg" xmlns:xlink="http://www.w3.org/1999/xlink" viewBox="0 0 1000 1000">
<rect width="100%" height="100%" fill="blue" />
<g>
	<g>
		<path d="M989.482,6.57c-8.764-8.762-22.96-8.762-31.724,0l-58.08,58.08l-17.44-17.44c-4.207-4.207-9.91-6.566-15.84-6.566
			s-11.633,2.359-15.84,6.566L556.836,341.836l-11.1-11.1c-8.764-8.762-22.96-8.762-31.724,0l-19.64,19.64l-27.76-27.76
			l6.34-6.34c8.762-8.762,8.762-22.96,0-31.724c-8.764-8.762-22.962-8.762-31.724,0l-44.44,44.44
			c-8.762,8.762-8.762,22.96,0,31.724c4.38,4.38,10.12,6.566,15.84,6.566c5.72,0,11.46-2.186,15.84-6.566l6.34-6.34
			l27.76,27.76l-95.08,95.08l-86.32-86.32c-6.78-6.78-17.1-8.49-25.74-4.28c-8.64,4.21-13.64,13.92-12.44,23.76
			l21.6,171.6l-12.56,12.56c-8.762,8.762-8.762,22.96,0,31.724l11.1,11.1l-35.8,35.8L31.56,623.56
			c-9.98-2.39-20.37,2.16-25.4,11.12c-5.02,8.96-3.46,20.16,3.8,27.42l115.14,115.14l-2.99,2.99
			c-8.762,8.762-8.762,22.96,0,31.724l171.44,171.44c3.68,3.68,8.54,5.96,13.72,6.46l140.96,13.52
			c0.72,0.07,1.44,0.1,2.16,0.1c8.62,0,16.58-4.96,20.32-12.86c4.06-8.62,2.28-18.86-4.42-25.56l-161.2-161.2
			l63.5-63.5l20.64,20.64c0.17,0.17,0.36,0.31,0.54,0.47l140.48,140.48c6.86,6.86,17.28,8.68,25.56,4.42
			c8.62-4.06,13.72-13.32,12.86-22.98l-13.52-140.96c-0.51-5.3-2.84-10.26-6.46-13.72l-47.88-47.88l183.62-183.62
			c8.762-8.762,8.762-22.96,0-31.724l-20.64-20.64L956.502,150.5c8.762-8.762,8.762-22.96,0-31.724l-22.64-22.64l58.08-58.08
			C998.244,29.53,998.244,15.332,989.482,6.57z M336.5,508.5l-31.16,31.16l-8.98-71.96L336.5,508.5z M98.24,686.54
			l93.02,22.24l-35.4,35.4L98.24,686.54z M255.5,786.5c-4.21,4.207-6.566,9.91-6.566,15.84s2.359,11.633,6.566,15.84
			l133.2,133.2l-70.52-6.78l-150.8-150.8l2.99-2.99l124.86-124.86l39.92,39.92L255.5,786.5z M508.5,754.5
			l6.78,70.52l-80.56-80.56l31.72-31.72L508.5,754.5z M597.5,516.5l-31.96-31.96c-8.764-8.762-22.96-8.762-31.724,0
			c-8.762,8.762-8.762,22.96,0,31.724l31.96,31.96l-31.72,31.72l-31.96-31.96c-8.764-8.762-22.96-8.762-31.724,0
			c-8.762,8.762-8.762,22.96,0,31.724l31.96,31.96l-31.72,31.72l-31.96-31.96c-8.764-8.762-22.96-8.762-31.724,0
			c-8.762,8.762-8.762,22.96,0,31.724l31.96,31.96l-35.56,35.56l-102.56-102.56L529.5,377.5l102.56,102.56L597.5,516.5z M628.5,411.5
			l-39.92-39.92L871.5,94.5l39.92,39.92L628.5,411.5z"/>
	</g>
</g>
</svg>
