<?xml version="1.0" encoding="iso-8859-1"?>
<!-- Uploaded to: SVG Repo, www.svgrepo.com, Generator: SVG Repo Mixer Tools -->
<svg fill="#000000" height="800px" width="800px" version="1.1" id="Layer_1" xmlns="http://www.w3.org/2000/svg" xmlns:xlink="http://www.w3.org/1999/xlink" 
	 viewBox="0 0 511.999 511.999" xml:space="preserve">
<g>
	<g>
		<g>
			<circle cx="290.696" cy="384.661" r="11.087"/>
			<circle cx="238.952" cy="436.405" r="11.087"/>
			<path d="M469.831,50.287l-47.039-47.04C420.714,1.169,417.893,0,414.953,0c-2.94,0-5.76,1.169-7.84,3.247l-27.44,27.44
				l-1.96-1.96c-2.08-2.079-4.899-3.247-7.84-3.247c-2.94,0-5.76,1.169-7.84,3.247l-117.989,117.99c-4.33,4.33-4.33,11.35,0,15.68
				l1.96,1.96l-58.799,58.799c-2.079,2.079-3.247,4.899-3.247,7.84c0,2.94,1.169,5.761,3.247,7.84l15.68,15.68l-42.727,42.727
				c-4.33,4.33-4.33,11.35,0,15.681c2.165,2.165,5.003,3.247,7.84,3.247s5.674-1.082,7.84-3.247l42.727-42.727l15.68,15.68
				c0.001,0.001,0.002,0.002,0.003,0.003c19.448,19.454,19.447,51.103-0.003,70.555l-23.521,23.519
				c-19.453,19.454-51.106,19.454-70.558,0l-15.68-15.68l11.172-11.172c4.33-4.33,4.33-11.35,0-15.681
				c-4.331-4.33-11.349-4.33-15.681,0l-11.172,11.171l-15.68-15.68c-2.08-2.079-4.899-3.247-7.84-3.247
				c-2.94,0-5.76,1.169-7.84,3.247l-35.278,35.28c-4.33,4.33-4.33,11.35,0,15.68l102.31,102.31
				c16.649,16.649,38.783,25.817,62.327,25.817s45.679-9.168,62.328-25.817l71.343-71.343c34.366-34.367,34.366-90.286,0-124.654
				l-47.431-47.431l15.68-15.68l1.96,1.96c2.08,2.079,4.899,3.247,7.84,3.247c2.94,0,5.76-1.169,7.84-3.247l117.99-117.99
				c2.079-2.079,3.247-4.899,3.247-7.84c0-2.94-1.169-5.761-3.247-7.84l-1.961-1.959l27.439-27.439
				C474.161,61.637,474.161,54.618,469.831,50.287z M242.084,262.355l-31.359-31.359l50.959-50.959l31.359,31.359L242.084,262.355z
				 M324.795,305.866c25.72,25.721,25.72,67.573,0,93.295l-71.343,71.343c-12.46,12.46-29.026,19.322-46.647,19.322
				s-34.186-6.862-46.646-19.322l-94.471-94.47l19.6-19.6l39.199,39.2c14.052,14.051,32.501,21.076,50.959,21.074
				c18.453-0.001,36.912-7.026,50.959-21.074l23.521-23.52c25.433-25.433,27.846-65.303,7.238-93.475l20.202-20.202L324.795,305.866
				z M318.522,205.516l-50.959-50.959l102.31-102.311l50.959,50.959L318.522,205.516z M426.713,77.726l-31.36-31.359l19.6-19.6
				l31.359,31.36L426.713,77.726z"/>
		</g>
	</g>
</g>
</svg>