<svg fill="#cccccc" xmlns="http://www.w3.org/2000/svg" xmlns:xlink="http://www.w3.org/1999/xlink" viewBox="0 0 2848 1424">
<defs>
	<g id="caliper">
		<path d="M506.615,3.363c-4.486-4.484-11.757-4.484-16.245,0l-29.734,29.734l-8.934-8.934c-2.155-2.154-5.076-3.364-8.122-3.364
			s-5.967,1.211-8.122,3.364L285.19,174.431l-5.685-5.684c-4.487-4.484-11.757-4.484-16.245,0l-10.05,10.05l-14.213-14.213
			l3.248-3.249c4.485-4.485,4.485-11.758,0-16.245c-4.486-4.484-11.759-4.484-16.245,0l-22.741,22.743
			c-4.485,4.485-4.485,11.758,0,16.245c2.243,2.242,5.183,3.364,8.122,3.364c2.939,0,5.88-1.122,8.122-3.364l3.248-3.248
			l14.213,14.212l-48.653,48.653l-44.165-44.165c-3.471-3.47-8.765-4.352-13.173-2.194c-4.408,2.159-6.959,6.88-6.345,11.75
			l10.992,87.3l-6.371,6.371c-4.485,4.485-4.485,11.758,0,16.245l5.686,5.686l-18.316,18.316L16.18,318.995
			c-4.999-1.195-10.185,1.077-12.696,5.564c-2.51,4.486-1.732,10.094,1.902,13.729l57.973,57.974l-1.509,1.509
			c-4.485,4.485-4.485,11.758,0,16.245l87.716,87.716c1.886,1.886,4.369,3.056,7.024,3.311l71.879,6.904
			c0.369,0.036,0.737,0.053,1.103,0.053c4.411,0,8.477-2.54,10.385-6.587c2.068-4.383,1.16-9.593-2.267-13.021l-82.437-82.437
			l32.475-32.475l10.559,10.559c0.086,0.086,0.179,0.159,0.268,0.241l71.624,71.623c3.426,3.426,8.638,4.333,13.021,2.267
			c4.383-2.068,6.998-6.663,6.534-11.487l-6.904-71.878c-0.255-2.656-1.425-5.139-3.311-7.024l-24.365-24.366l93.39-93.39
			c4.485-4.485,4.485-11.758,0-16.245l-10.558-10.559L488.251,76.957c4.485-4.485,4.485-11.758,0-16.245l-11.37-11.37l29.734-29.734
			C511.1,15.123,511.1,7.85,506.615,3.363z M172.069,259.939l-15.883,15.883l-4.576-36.343L172.069,259.939z M50.374,350.788
			l47.182,11.278l-17.952,17.952L50.374,350.788z M130.885,401.832c-2.154,2.155-3.364,5.076-3.364,8.122s1.211,5.967,3.364,8.122
			l67.947,67.946l-35.94-3.452l-76.677-76.678l1.509-1.509l63.453-63.453l20.304,20.304L130.885,401.832z M260.357,385.109
			l3.452,35.939l-41.143-41.143l16.244-16.244L260.357,385.109z M305.902,264.179l-16.379-16.379
			c-4.486-4.484-11.757-4.484-16.245,0c-4.485,4.485-4.485,11.758,0,16.245l16.379,16.379l-16.244,16.244l-16.379-16.379
			c-4.487-4.484-11.757-4.484-16.245,0c-4.485,4.485-4.485,11.758,0,16.245l16.379,16.379l-16.244,16.244l-16.379-16.379
			c-4.487-4.484-11.757-4.484-16.245,0c-4.485,4.485-4.485,11.758,0,16.245l16.379,16.379l-18.274,18.274l-52.793-52.793
			L271.38,193.115l52.793,52.793L305.902,264.179z M321.74,210.98l-20.305-20.305L443.58,48.529l20.305,20.305L321.74,210.98z"/>
	</g>
   <g id="micrometer">
			<circle cx="290.696" cy="384.661" r="11.087"/>
			<circle cx="238.952" cy="436.405" r="11.087"/>
			<path d="M469.831,50.287l-47.039-47.04C420.714,1.169,417.893,0,414.953,0c-2.94,0-5.76,1.169-7.84,3.247l-27.44,27.44
				l-1.96-1.96c-2.08-2.079-4.899-3.247-7.84-3.247c-2.94,0-5.76,1.169-7.84,3.247l-117.989,117.99c-4.33,4.33-4.33,11.35,0,15.68
				l1.96,1.96l-58.799,58.799c-2.079,2.079-3.247,4.899-3.247,7.84c0,2.94,1.169,5.761,3.247,7.84l15.68,15.68l-42.727,42.727
				c-4.33,4.33-4.33,11.35,0,15.681c2.165,2.165,5.003,3.247,7.84,3.247s5.674-1.082,7.84-3.247l42.727-42.727l15.68,15.68
				c0.001,0.001,0.002,0.002,0.003,0.003c19.448,19.454,19.447,51.103-0.003,70.555l-23.521,23.519
				c-19.453,19.454-51.106,19.454-70.558,0l-15.68-15.68l11.172-11.172c4.33-4.33,4.33-11.35,0-15.681
				c-4.331-4.33-11.349-4.33-15.681,0l-11.172,11.171l-15.68-15.68c-2.08-2.079-4.899-3.247-7.84-3.247
				c-2.94,0-5.76,1.169-7.84,3.247l-35.278,35.28c-4.33,4.33-4.33,11.35,0,15.68l102.31,102.31
				c16.649,16.649,38.783,25.817,62.327,25.817s45.679-9.168,62.328-25.817l71.343-71.343c34.366-34.367,34.366-90.286,0-124.654
				l-47.431-47.431l15.68-15.68l1.96,1.96c2.08,2.079,4.899,3.247,7.84,3.247c2.94,0,5.76-1.169,7.84-3.247l117.99-117.99
				c2.079-2.079,3.247-4.899,3.247-7.84c0-2.94-1.169-5.761-3.247-7.84l-1.961-1.959l27.439-27.439
				C474.161,61.637,474.161,54.618,469.831,50.287z M242.084,262.355l-31.359-31.359l50.959-50.959l31.359,31.359L242.084,262.355z
				 M324.795,305.866c25.72,25.721,25.72,67.573,0,93.295l-71.343,71.343c-12.46,12.46-29.026,19.322-46.647,19.322
				s-34.186-6.862-46.646-19.322l-94.471-94.47l19.6-19.6l39.199,39.2c14.052,14.051,32.501,21.076,50.959,21.074
				c18.453-0.001,36.912-7.026,50.959-21.074l23.521-23.52c25.433-25.433,27.846-65.303,7.238-93.475l20.202-20.202L324.795,305.866
				z M318.522,205.516l-50.959-50.959l102.31-102.311l50.959,50.959L318.522,205.516z M426.713,77.726l-31.36-31.359l19.6-19.6
				l31.359,31.36L426.713,77.726z"/>
		</g>
  	<g id="indicator">
			<path d="M490.407,465.492H350.169l-14.921-26.25c-1.437-2.529-4.121-4.09-7.029-4.09h-45.811v-57.581
				c92.149-12.892,163.301-92.217,163.301-187.862C445.709,85.103,360.606,0,256,0S66.291,85.103,66.291,189.709
				c0,95.645,71.152,174.97,163.301,187.862v57.581h-45.811c-2.907,0-5.592,1.561-7.029,4.09l-14.921,26.25H21.593
				C9.687,465.492,0,475.18,0,487.085v3.32C0,502.312,9.687,512,21.593,512h371.025c4.466,0,8.084-3.618,8.084-8.084
				c0-4.466-3.618-8.084-8.084-8.084H21.593c-2.991,0-5.425-2.434-5.425-5.425v-3.32c0-2.991,2.434-5.425,5.425-5.425h144.941
				h178.931h144.941c2.991,0,5.425,2.434,5.425,5.425v3.32c0,2.991-2.434,5.425-5.425,5.425h-70.48
				c-4.466,0-8.084,3.619-8.084,8.084c0,4.466,3.619,8.084,8.084,8.084h70.48c11.906,0,21.593-9.687,21.593-21.593v-3.32
				C512,475.18,502.313,465.492,490.407,465.492z M82.459,189.709C82.459,94.018,160.31,16.168,256,16.168
				s173.541,77.85,173.541,173.541c0,89.942-68.779,164.115-156.502,172.704c-11.29,1.104-22.789,1.104-34.079,0
				C151.238,353.824,82.459,279.651,82.459,189.709z M266.24,379.143v56.011h-20.48v-56.011c0.039,0.002,0.079,0.002,0.117,0.004
				c1.494,0.079,2.993,0.137,4.496,0.181c0.184,0.005,0.369,0.016,0.553,0.022c1.686,0.044,3.377,0.069,5.074,0.069
				s3.388-0.025,5.074-0.069c0.184-0.005,0.369-0.015,0.553-0.022c1.503-0.044,3.002-0.102,4.496-0.181
				C266.161,379.145,266.201,379.145,266.24,379.143z M180.43,465.492l8.055-14.171h49.191h36.648h49.192l8.055,14.171H180.43z"/>
			<path d="M383.137,282.366c2.633-3.606,1.848-8.663-1.758-11.296c-3.606-2.634-8.663-1.846-11.296,1.758
				c-26.577,36.37-69.225,58.086-114.082,58.086c-75.491,0-137.335-59.549-141.027-134.141h21.979c4.466,0,8.084-3.62,8.084-8.084
				c0-3.539-2.276-6.539-5.442-7.634c1.777-26.632,12.285-50.642,28.688-69.284c1.115,0.543,2.325,0.822,3.538,0.822
				c2.068,0,4.138-0.789,5.717-2.368c2.496-2.496,3.011-6.218,1.558-9.228c18.747-16.364,42.828-26.757,69.381-28.419
				c1.176,3.011,4.098,5.146,7.525,5.146c3.423,0,6.342-2.13,7.522-5.135c26.239,1.719,50.327,12.353,69.162,28.891
				c-1.176,2.917-0.583,6.379,1.781,8.743c1.579,1.578,3.649,2.368,5.717,2.368c1.041,0,2.083-0.202,3.061-0.602
				c16.609,18.736,27.357,42.76,29.161,69.066c-3.163,1.097-5.437,4.095-5.437,7.632c0,4.465,3.618,8.084,8.084,8.084h21.973
				c-0.913,18.707-5.453,36.725-13.549,53.651c-1.926,4.028-0.223,8.855,3.804,10.781c4.025,1.927,8.854,0.224,10.781-3.804
				c10.16-21.242,15.313-44.017,15.313-67.691c0-86.776-70.597-157.373-157.373-157.373S98.627,102.934,98.627,189.709
				S169.224,347.082,256,347.082C305.999,347.082,353.527,322.89,383.137,282.366z M360.867,95.256
				c20.671,22.926,33.943,52.64,36.035,85.349h-8.324c-1.86-29.701-13.512-57.573-33.289-79.773L360.867,95.256z M264.084,48.742
				c32.599,1.85,62.271,14.807,85.288,35.14l-5.536,5.536c-22.29-19.705-50.156-31.221-79.752-33V48.742z M247.916,48.742v7.677
				c-29.589,1.78-57.461,13.298-79.751,33.002l-5.538-5.538C185.644,63.551,215.316,50.592,247.916,48.742z M151.133,95.256
				l5.577,5.577c-19.766,22.193-31.427,50.068-33.289,79.773h-8.323C117.19,147.897,130.462,118.183,151.133,95.256z"/>
			<path d="M316.036,129.606c-2.942-2.398-7.149-2.431-10.125-0.08l-67.249,53.143c-2.839,2.247-5.161,4.984-6.898,8.133
				c-0.047,0.087-0.094,0.175-0.139,0.263l-0.327,0.646c-4.251,8.432-3.834,18.276,1.118,26.333
				c0.036,0.059,0.077,0.127,0.102,0.168c0.112,0.179,0.227,0.355,0.345,0.529l0.086,0.128c0.12,0.183,0.244,0.367,0.372,0.548
				c0.071,0.102,0.151,0.212,0.251,0.349c0.189,0.259,0.38,0.516,0.579,0.77c0.057,0.073,0.119,0.152,0.198,0.249
				c0.237,0.294,0.477,0.583,0.723,0.863l0.019,0.022c0.055,0.065,0.11,0.127,0.165,0.19c0.235,0.26,0.47,0.516,0.703,0.759
				l0.216,0.22c0.222,0.226,0.446,0.447,0.675,0.664c0.047,0.045,0.095,0.089,0.143,0.134l0.244,0.223
				c0.195,0.178,0.389,0.351,0.591,0.525c0.032,0.028,0.116,0.099,0.151,0.127c0.141,0.117,0.284,0.236,0.429,0.352l0.378,0.305
				c0.035,0.028,0.07,0.055,0.106,0.082c0.191,0.146,0.383,0.29,0.637,0.475l0.334,0.239c0.262,0.185,0.532,0.366,0.806,0.547
				c0.04,0.026,0.058,0.038,0.098,0.064c0.037,0.024,0.16,0.105,0.197,0.127c0.3,0.19,0.607,0.375,0.99,0.596l0.12,0.068
				c0.315,0.181,0.638,0.354,0.961,0.521c0.114,0.061,0.227,0.12,0.342,0.176c0.275,0.137,0.555,0.267,0.834,0.397
				c0.044,0.02,0.069,0.031,0.113,0.052l0.246,0.111c0.234,0.105,0.471,0.201,0.803,0.334c0.181,0.075,0.363,0.149,0.53,0.212
				c0.105,0.04,0.21,0.078,0.318,0.114c2.963,1.07,6.064,1.614,9.218,1.614c6.047,0,11.993-2.068,16.729-5.813l0.564-0.444
				c0.084-0.066,0.166-0.134,0.247-0.203c2.737-2.336,4.952-5.159,6.583-8.394l38.581-76.534
				C319.85,136.122,318.974,132.004,316.036,129.606z M265.125,208.762c-0.637,1.263-1.491,2.368-2.538,3.285l-0.433,0.342
				c-1.934,1.53-4.256,2.338-6.714,2.338c-1.272,0-2.521-0.218-3.714-0.649c-0.046-0.017-0.093-0.035-0.14-0.051l-0.236-0.097
				c-0.019-0.008-0.092-0.037-0.111-0.044l-0.261-0.112c-0.128-0.059-0.257-0.116-0.383-0.179c-0.036-0.019-0.072-0.039-0.11-0.057
				c-0.122-0.063-0.245-0.125-0.363-0.193c-0.03-0.018-0.063-0.036-0.093-0.053c-0.013-0.008-0.027-0.016-0.042-0.024
				c-0.124-0.072-0.247-0.146-0.346-0.208l-0.123-0.08c-0.11-0.071-0.218-0.142-0.26-0.171l-0.686-0.517
				c-0.028-0.024-0.061-0.05-0.089-0.072l-0.511-0.451c-0.084-0.081-0.167-0.163-0.249-0.247c-0.015-0.015-0.107-0.107-0.121-0.122
				c-0.098-0.101-0.193-0.206-0.288-0.312c-0.027-0.032-0.056-0.066-0.084-0.098c-0.095-0.108-0.187-0.22-0.305-0.367
				c-0.017-0.022-0.033-0.043-0.051-0.065c-0.082-0.104-0.158-0.21-0.184-0.244l-0.117-0.162c-0.015-0.021-0.029-0.042-0.049-0.068
				l-0.245-0.366c0,0-0.022-0.032-0.039-0.059c-0.015-0.024-0.03-0.048-0.045-0.073c-1.996-3.245-2.168-7.205-0.46-10.589
				l0.247-0.492c0.689-1.213,1.601-2.274,2.711-3.152l38.551-30.465L265.125,208.762z"/>
			<path d="M300.936,260.155c0-4.465-3.618-8.084-8.084-8.084h-73.297c-4.466,0-8.084,3.62-8.084,8.084
				c0,4.465,3.619,8.084,8.084,8.084h73.297C297.318,268.239,300.936,264.621,300.936,260.155z"/>
			<path d="M237.676,280.301c-4.466,0-8.084,3.618-8.084,8.084c0,4.466,3.618,8.084,8.084,8.084h36.648
				c4.466,0,8.084-3.619,8.084-8.084c0-4.466-3.619-8.084-8.084-8.084H237.676z"/>
		</g>
<g id="tape" style="fill:none;stroke:#cccccc;stroke-width:20;stroke-linecap:round;stroke-linejoin:round;" >
<circle cx="328.8" cy="252.8" r="91.2"/>
<path d="M328.8,87.68c-91.2,0-164.16,73.92-164.16,164.16c0,36.48,12.78,71.14,32.83,98.5L165.6,416h164.16c91.2,0,164.16-73.92,164.16-164.16C493.92,161.6,420,87.68,328.8,87.68z"/>
<polyline points="18.72,470.72 18.72,416 182.88,416 "/>

	<path d="M253.92,104.1l-23.71-47.42c-67.49,34.67-114.99,102.08-120.48,180.58l52.9,3.65"/>
</g>
  </defs>
  <use xlink:href="#caliper" x="100" y="100" />
  <use xlink:href="#indicator" x="812" y="100" />
  <use xlink:href="#micrometer" x="1524" y="100" />
  <use xlink:href="#tape" x="2236" y="100"/>

  <use xlink:href="#tape" x="100" y="812" />
  <use xlink:href="#caliper" x="812" y="812" />
  <use xlink:href="#indicator" x="1524" y="812" />
  <use xlink:href="#micrometer" x="2236" y="812"/>

  <!-- <use xlink:href="#micrometer" x="100" y="1524" />
  <use xlink:href="#tape" x="812" y="1524" />
  <use xlink:href="#caliper" x="1524" y="1524" />
  <use xlink:href="#indicator" x="2236" y="1524"/>

  <use xlink:href="#indicator" x="100" y="2236" />
  <use xlink:href="#micrometer" x="812" y="2236" />
  <use xlink:href="#tape" x="1524" y="2236" />
  <use xlink:href="#caliper" x="2236" y="2236"/> -->

</svg>