<?xml version="1.0" encoding="UTF-8" standalone="no"?>
<!-- Generator: Adobe Illustrator 27.0.0, SVG Export Plug-In . SVG Version: 6.00 Build 0)  -->

<svg
   version="1.1"
   id="Layer_1"
   x="0px"
   y="0px"
   viewBox="0 0 2500 1000"
   xml:space="preserve"
   sodipodi:docname="rst.svg"
   width="2500"
   height="1000"
   xmlns:inkscape="http://www.inkscape.org/namespaces/inkscape"
   xmlns:sodipodi="http://sodipodi.sourceforge.net/DTD/sodipodi-0.dtd"
   xmlns="http://www.w3.org/2000/svg"
   xmlns:svg="http://www.w3.org/2000/svg"><defs
   id="defs1" /><sodipodi:namedview
   id="namedview1"
   pagecolor="#ffffff"
   bordercolor="#000000"
   borderopacity="0.25"
   inkscape:showpageshadow="2"
   inkscape:pageopacity="0.0"
   inkscape:pagecheckerboard="0"
   inkscape:deskcolor="#d1d1d1" />
<g
   id="g1">
	<polygon
   points="1000,403.4 733.8,403.4 733.8,487.2 797.8,487.2 797.8,601.9 936,601.9 936,487.2 1000,487.2 "
   id="polygon1"
   style="display:inline" />
	<path
   d="m 610.8,300.3 c 78.5,0 181.6,30.5 254,78 V 214.1 C 750.9,147.5 607.9,106.7 480.1,106.7 148.7,106.7 0,282.7 0,499.8 0,717 147.5,893 480.2,893 607.9,893 750.9,852.2 864.9,785.6 V 629.9 c -66.9,44 -162.7,72 -254,72 -109.6,0 -198.4,-89.9 -198.4,-200.8 0,-110.9 88.8,-200.8 198.3,-200.8 z M 237.4,556 c -10.7,0 -21,-1.3 -31,-3.5 v -81.1 c 9.1,5.3 19.7,8.5 31,8.5 33.9,0 61.3,-27.5 61.3,-61.3 0,-33.8 -27.5,-61.3 -61.3,-61.3 -33.8,0 -61.5,27.5 -61.5,61.3 0,0 0,237.6 0,302 -59.4,0 -76.1,-57.3 -76.1,-57.3 V 418.4 c 0,-76 61.6,-137.5 137.5,-137.5 76,0 137.5,61.6 137.5,137.5 0.2,76 -61.4,137.6 -137.4,137.6 z"
   id="path1" />
</g>
</svg>
