<svg version="1.1" viewBox="0 0 2074.2 786.3" xml:space="preserve" xmlns="http://www.w3.org/2000/svg"><defs><filter id="filter1" x="-.013981" y="-.036911" width="1.0421" height="1.0738" color-interpolation-filters="sRGB"><feGaussianBlur stdDeviation="11.765191"/></filter></defs>

<g filter="url(#filter1)"><path d="m1462.9 622.41-1.95 119.4m186.49-119.4-1.95 119.4m197.34-298.49-1.95 298.49m-572.72-298.49-1.95 298.49m766.88-693.58-1.95 693.58m-955.19-694.67-1.95 694.67" fill="none" stroke="#292524" stroke-linecap="round" stroke-linejoin="round" stroke-miterlimit="1.8" stroke-width="57.248"/><path class="st0" d="m1508.5 28.861h87.76l178.9 477.68h-105.3l-35.66-100.35h-169.83l-35.66 100.35h-98.78zm-7.27 274.92h96.23l-47.82-135.07z" fill="#292524"/><g fill="#292524">
	<polygon points="926 493.2 926 378.5 990 378.5 990 294.7 723.8 294.7 723.8 378.5 787.8 378.5 787.8 493.2"/>
	<path d="m607.68 199.66c76.373 0 176.68 29.674 247.12 75.887v-159.75c-110.81-64.796-249.94-104.49-374.28-104.49-322.42 0-467.09 171.23-467.09 382.45 0 211.32 143.5 382.55 467.19 382.55 124.24 0 263.36-39.695 374.28-104.49v-151.48c-65.087 42.808-158.29 70.049-247.12 70.049-106.63 0-193.02-87.464-193.02-195.36 0-107.9 86.394-195.36 192.93-195.36zm-363.28 248.77c-10.41 0-20.431-1.265-30.16-3.405v-78.903c8.854 5.157 19.166 8.27 30.16 8.27 32.982 0 59.639-26.755 59.639-59.639s-26.755-59.639-59.639-59.639-59.833 26.755-59.833 59.639v293.82c-57.791 0-74.038-55.747-74.038-55.747v-238.26c0-73.94 59.93-133.77 133.77-133.77 73.941 0 133.77 59.931 133.77 133.77 0.195 73.941-59.736 133.87-133.68 133.87z" stroke-width=".9729"/>
</g></g></svg>
