<?xml version="1.0" encoding="utf-8"?>
<!-- Generator: Adobe Illustrator 27.0.0, SVG Export Plug-In . SVG Version: 6.00 Build 0)  -->
<svg version="1.1" id="Layer_1" xmlns="http://www.w3.org/2000/svg" xmlns:xlink="http://www.w3.org/1999/xlink" x="0px" y="0px"
	 viewBox="0 0 1000 1000" style="enable-background:new 0 0 1000 1000;" xml:space="preserve">
<g>
	<polygon points="1000,403.4 733.8,403.4 733.8,487.2 797.8,487.2 797.8,601.9 936,601.9 936,487.2 1000,487.2 	"/>
	<path d="M610.8,300.3c78.5,0,181.6,30.5,254,78V214.1c-113.9-66.6-256.9-107.4-384.7-107.4C148.7,106.7,0,282.7,0,499.8
		C0,717,147.5,893,480.2,893c127.7,0,270.7-40.8,384.7-107.4V629.9c-66.9,44-162.7,72-254,72c-109.6,0-198.4-89.9-198.4-200.8
		C412.5,390.2,501.3,300.3,610.8,300.3z M237.4,556c-10.7,0-21-1.3-31-3.5v-81.1c9.1,5.3,19.7,8.5,31,8.5
		c33.9,0,61.3-27.5,61.3-61.3s-27.5-61.3-61.3-61.3s-61.5,27.5-61.5,61.3c0,0,0,237.6,0,302c-59.4,0-76.1-57.3-76.1-57.3V418.4
		c0-76,61.6-137.5,137.5-137.5c76,0,137.5,61.6,137.5,137.5C375,494.4,313.4,556,237.4,556z"/>
</g>
</svg>
